<svg width="501" height="138" viewBox="0 0 501 138" fill="none" xmlns="http://www.w3.org/2000/svg">
<path d="M65.2927 60.8547C59.3269 54.887 49.6545 54.887 43.6887 60.8547C37.7229 66.8224 37.7229 76.4979 43.6887 82.4656L87.6143 126.405C93.5801 132.373 103.252 132.373 109.218 126.405C115.184 120.438 115.184 110.762 109.218 104.794L65.2927 60.8547Z" fill="#0061FF"/>
<path d="M44.5865 82.8824L44.6617 82.9489C50.9647 88.5172 60.5868 87.9201 66.1534 81.6151L109.734 32.2536C115.301 25.9487 114.704 16.3235 108.401 10.7551L108.326 10.6886C102.023 5.12027 92.4004 5.71739 86.8339 12.0224L43.2532 61.3838C37.6866 67.6888 38.2835 77.314 44.5865 82.8824Z" fill="url(#paint0_radial_12345_227752)"/>
<path d="M54.5436 86.8508C62.9705 86.8508 69.8019 80.0172 69.8019 71.5875C69.8019 63.1578 62.9705 56.3242 54.5436 56.3242C46.1166 56.3242 39.2852 63.1578 39.2852 71.5875C39.2852 80.0172 46.1166 86.8508 54.5436 86.8508Z" fill="#FCFCFC"/>
<path d="M99.067 131.456C107.494 131.456 114.325 124.623 114.325 116.193C114.325 107.763 107.494 100.93 99.067 100.93C90.64 100.93 83.8086 107.763 83.8086 116.193C83.8086 124.623 90.64 131.456 99.067 131.456Z" fill="#FCFCFC"/>
<path d="M98.6139 36.8468C107.041 36.8468 113.872 30.0132 113.872 21.5836C113.872 13.1539 107.041 6.32031 98.6139 6.32031C90.1869 6.32031 83.3555 13.1539 83.3555 21.5836C83.3555 30.0132 90.1869 36.8468 98.6139 36.8468Z" fill="#FCFCFC"/>
<path d="M16.1939 7.44144C24.5959 7.45938 31.4559 14.3503 31.4379 22.7549L31.3339 115.439C31.316 123.844 24.4273 130.706 16.0253 130.688C7.62336 130.67 0.763355 123.779 0.781285 115.375L0.885282 22.6904C0.903212 14.2857 7.7919 7.42351 16.1939 7.44144Z" fill="url(#paint1_radial_12345_227752)"/>
<path d="M202.75 54.6172C200.623 49.4122 197.568 44.7346 193.666 40.7098C185.397 32.1796 174.065 27.4805 161.758 27.4805C156.114 27.4805 150.584 28.571 145.327 30.7197C140.124 32.8468 135.448 35.9031 131.424 39.8059C122.897 48.0778 118.199 59.4132 118.199 71.7242C118.199 77.3704 119.289 82.9017 121.437 88.1605C123.564 93.3654 126.619 98.043 130.521 102.068C138.79 110.598 150.122 115.297 162.429 115.297C168.073 115.297 173.603 114.207 178.86 112.058C184.063 109.931 188.739 106.875 192.763 102.972C201.29 94.6998 205.988 83.3645 205.988 71.0534C205.988 65.4073 204.898 59.8759 202.75 54.6172ZM197.801 71.387C197.801 81.4059 193.932 90.5961 186.9 97.2646C180.309 103.517 171.351 107.104 162.318 107.104C152.22 107.104 142.96 103.216 136.251 96.1562C129.983 89.5594 126.386 80.6131 126.386 71.6094C126.386 61.5009 130.252 52.2389 137.277 45.5345C143.843 39.2642 152.765 35.6699 161.758 35.6699C171.681 35.6699 180.843 39.4077 187.559 46.1982C194.161 52.8738 197.797 61.8165 197.797 71.387H197.801Z" fill="#FCFCFC"/>
<path d="M257.886 67.141C259.79 66.133 261.834 64.7412 262.688 63.8875L262.702 63.8732L262.716 63.8588C265.617 60.7165 267.027 56.5626 267.027 51.1639C267.027 40.6285 258.721 29.7344 244.822 29.7344H224.475C224.221 29.8348 223.966 29.9353 223.711 30.0393C223.607 30.2976 223.503 30.5558 223.399 30.8105V112.224C223.392 112.256 223.292 112.701 223.611 113.042C223.83 113.275 224.16 113.376 224.475 113.3H247.953C259.636 113.3 271.724 104.114 271.724 88.7392C271.724 76.8191 263.229 69.6162 257.89 67.1446L257.886 67.141ZM247.741 65.0677H231.586V37.9202H244.819C248.821 37.9202 252.46 39.4125 255.071 42.1208C257.463 44.6031 258.836 47.9391 258.836 51.2715C258.836 59.3426 253.102 64.0705 247.741 65.0677ZM231.586 73.2571H249.294C258.09 73.2571 263.534 81.3497 263.534 88.8432C263.534 96.8353 257.664 105.1 247.842 105.1H231.59V73.2571H231.586Z" fill="#FCFCFC"/>
<path d="M432.082 105.099H390.226V30.8027V29.7266H389.15H383.115H382.039V30.8027V112.216V113.293H383.115H432.082H433.157V112.216V106.176V105.099H432.082Z" fill="#FCFCFC"/>
<path d="M499.705 29.7266H438.216H437.141V30.8027V36.8434V37.9196H438.216H465.093V112.216V113.293H466.169H472.204H473.28V112.216V37.9196H499.705H500.781V36.8434V30.8027V29.7266H499.705Z" fill="#FCFCFC"/>
<path d="M307.096 84.4337H343.848L356.464 111.481H365.519L365.074 110.527L326.503 27.7713L325.528 25.6836L324.552 27.7713L285.87 110.527L285.422 111.484H294.473L307.092 84.4373L307.096 84.4337ZM325.42 44.9716L340.047 76.2407H310.893L325.42 44.9716Z" fill="#FCFCFC"/>
<defs>
<radialGradient id="paint0_radial_12345_227752" cx="0" cy="0" r="1" gradientUnits="userSpaceOnUse" gradientTransform="translate(72.5427 105.95) rotate(-138.541) scale(124.015 97.2521)">
<stop offset="0.38" stop-color="#09DFB5"/>
<stop offset="0.92" stop-color="#0061FF"/>
</radialGradient>
<radialGradient id="paint1_radial_12345_227752" cx="0" cy="0" r="1" gradientUnits="userSpaceOnUse" gradientTransform="translate(-20.1824 9.00543) scale(124.42 124.459)">
<stop offset="0.38" stop-color="#09DFB5"/>
<stop offset="0.92" stop-color="#0061FF"/>
</radialGradient>
</defs>
</svg>
